<?xml version="1.0" encoding="UTF-8"?>
<!-- Generator: visioncortex VTracer 0.6.3 -->
<svg version="1.1" xmlns="http://www.w3.org/2000/svg" width="1280" height="1280">
<path d="M0 0 C2.76 0.24 5.51 0.38 8.27 0.52 C11.32 1.06 12.65 2.06 15 4 C16.14 4.12 16.14 4.12 17.31 4.25 C21.56 5.44 24.34 8.55 27 12 C27.26 13.07 27.26 13.07 27.52 14.17 C27.68 14.77 27.84 15.38 28 16 C28.99 16.33 29.98 16.66 31 17 C30.67 17.66 30.34 18.32 30 19 C30.99 19 31.98 19 33 19 C33 29.56 33 40.12 33 51 C32.01 51 31.02 51 30 51 C29.88 51.87 29.75 52.73 29.62 53.62 C28.74 58.41 27.31 62.72 25 67 C24.01 67 23.02 67 22 67 C22.06 67.91 22.12 68.82 22.19 69.75 C21.98 73.29 21.47 74.53 19 77 C18.34 77 17.68 77 17 77 C17.06 77.91 17.12 78.82 17.19 79.75 C16.98 83.29 16.47 84.53 14 87 C13.34 87 12.68 87 12 87 C12.37 88.36 12.37 88.36 12.75 89.75 C13 93 13 93 11.19 95.38 C9 97 9 97 7 97 C7.33 98.98 7.66 100.96 8 103 C6.51 103.5 6.51 103.5 5 104 C4.67 104.99 4.34 105.98 4 107 C3.34 107 2.68 107 2 107 C2.33 108.98 2.66 110.96 3 113 C1.51 113.5 1.51 113.5 0 114 C-0.33 114.99 -0.66 115.98 -1 117 C-1.66 117 -2.32 117 -3 117 C-2.67 118.98 -2.34 120.96 -2 123 C-3.49 123.5 -3.49 123.5 -5 124 C-5.33 124.99 -5.66 125.98 -6 127 C-6.66 127 -7.32 127 -8 127 C-7.67 128.98 -7.34 130.96 -7 133 C-7.99 133.33 -8.98 133.66 -10 134 C-10.33 134.99 -10.66 135.98 -11 137 C-11.66 137 -12.32 137 -13 137 C-12.63 138.36 -12.63 138.36 -12.25 139.75 C-12 143 -12 143 -13.81 145.38 C-16 147 -16 147 -18 147 C-17.63 148.36 -17.63 148.36 -17.25 149.75 C-17 153 -17 153 -18.81 155.38 C-21 157 -21 157 -23 157 C-22.63 158.36 -22.63 158.36 -22.25 159.75 C-22 163 -22 163 -23.81 165.38 C-26 167 -26 167 -28 167 C-27.67 169.31 -27.34 171.62 -27 174 C-30.75 177 -30.75 177 -33 177 C-32.67 179.31 -32.34 181.62 -32 184 C-35.75 187 -35.75 187 -38 187 C-37.67 189.31 -37.34 191.62 -37 194 C-40.75 197 -40.75 197 -43 197 C-42.67 199.31 -42.34 201.62 -42 204 C-45.75 207 -45.75 207 -48 207 C-47.67 209.31 -47.34 211.62 -47 214 C-50.75 217 -50.75 217 -53 217 C-52.73 218.07 -52.46 219.14 -52.19 220.25 C-52.13 221.49 -52.06 222.73 -52 224 C-53.65 225.35 -55.32 226.68 -57 228 C-57.75 230.72 -57.86 233.15 -58 236 C-58.66 236 -59.32 236 -60 236 C-60.33 237.98 -60.66 239.96 -61 242 C-61.66 242 -62.32 242 -63 242 C-63.12 242.72 -63.25 243.44 -63.38 244.19 C-63.99 246.96 -64.88 249.4 -66 252 C-66.66 252 -67.32 252 -68 252 C-68.12 252.72 -68.25 253.44 -68.38 254.19 C-68.99 256.96 -69.88 259.4 -71 262 C-71.66 262 -72.32 262 -73 262 C-73.12 262.72 -73.25 263.44 -73.38 264.19 C-73.99 266.96 -74.88 269.4 -76 272 C-76.66 272 -77.32 272 -78 272 C-78.12 272.72 -78.25 273.44 -78.38 274.19 C-78.99 276.96 -79.88 279.4 -81 282 C-81.66 282 -82.32 282 -83 282 C-83.12 282.72 -83.25 283.44 -83.38 284.19 C-83.99 286.96 -84.88 289.4 -86 292 C-86.66 292 -87.32 292 -88 292 C-88.12 292.72 -88.25 293.44 -88.38 294.19 C-88.99 296.96 -89.88 299.4 -91 302 C-91.66 302 -92.32 302 -93 302 C-93 303.65 -93 305.3 -93 307 C-93.66 307 -94.32 307 -95 307 C-95.33 308.65 -95.66 310.3 -96 312 C-96.66 312 -97.32 312 -98 312 C-98 313.65 -98 315.3 -98 317 C-98.66 317 -99.32 317 -100 317 C-100.33 318.65 -100.66 320.3 -101 322 C-101.66 322 -102.32 322 -103 322 C-103 323.65 -103 325.3 -103 327 C-103.66 327 -104.32 327 -105 327 C-105.33 328.65 -105.66 330.3 -106 332 C-106.66 332 -107.32 332 -108 332 C-107.94 332.72 -107.88 333.44 -107.81 334.19 C-108.04 337.56 -109 339.31 -111 342 C-111.66 342 -112.32 342 -113 342 C-112.94 342.72 -112.88 343.44 -112.81 344.19 C-113.04 347.56 -114 349.31 -116 352 C-116.66 352 -117.32 352 -118 352 C-117.94 352.72 -117.88 353.44 -117.81 354.19 C-118.04 357.56 -119 359.31 -121 362 C-121.66 362 -122.32 362 -123 362 C-122.94 362.72 -122.88 363.44 -122.81 364.19 C-123.04 367.56 -124 369.31 -126 372 C-126.66 372 -127.32 372 -128 372 C-127.94 372.72 -127.88 373.44 -127.81 374.19 C-128.04 377.56 -129 379.31 -131 382 C-131.66 382 -132.32 382 -133 382 C-133 383.98 -133 385.96 -133 388 C-133.66 388 -134.32 388 -135 388 C-135.33 389.32 -135.66 390.64 -136 392 C-136.66 392 -137.32 392 -138 392 C-138 393.98 -138 395.96 -138 398 C-138.66 398 -139.32 398 -140 398 C-140.33 399.32 -140.66 400.64 -141 402 C-141.66 402 -142.32 402 -143 402 C-143 403.98 -143 405.96 -143 408 C-143.66 408 -144.32 408 -145 408 C-145.33 409.32 -145.66 410.64 -146 412 C-146.66 412 -147.32 412 -148 412 C-148 413.98 -148 415.96 -148 418 C-148.66 418 -149.32 418 -150 418 C-150.33 419.32 -150.66 420.64 -151 422 C-151.66 422 -152.32 422 -153 422 C-152.94 422.91 -152.88 423.82 -152.81 424.75 C-153.02 428.29 -153.53 429.53 -156 432 C-156.66 432 -157.32 432 -158 432 C-157.94 432.91 -157.88 433.82 -157.81 434.75 C-158.02 438.29 -158.53 439.53 -161 442 C-161.66 442 -162.32 442 -163 442 C-162.94 442.91 -162.88 443.82 -162.81 444.75 C-163.02 448.29 -163.53 449.53 -166 452 C-166.66 452 -167.32 452 -168 452 C-167.94 452.91 -167.88 453.82 -167.81 454.75 C-168.02 458.29 -168.53 459.53 -171 462 C-171.66 462 -172.32 462 -173 462 C-172.75 462.91 -172.51 463.82 -172.25 464.75 C-172 468 -172 468 -173.81 470.38 C-176 472 -176 472 -178 472 C-177.67 473.98 -177.34 475.96 -177 478 C-177.99 478.33 -178.98 478.66 -180 479 C-180.33 479.99 -180.66 480.98 -181 482 C-181.66 482 -182.32 482 -183 482 C-182.67 483.98 -182.34 485.96 -182 488 C-182.99 488.33 -183.98 488.66 -185 489 C-185.33 489.99 -185.66 490.98 -186 492 C-186.66 492 -187.32 492 -188 492 C-187.67 493.98 -187.34 495.96 -187 498 C-187.99 498.33 -188.98 498.66 -190 499 C-190.33 499.99 -190.66 500.98 -191 502 C-191.66 502 -192.32 502 -193 502 C-192.67 503.98 -192.34 505.96 -192 508 C-192.99 508.33 -193.98 508.66 -195 509 C-195.33 509.99 -195.66 510.98 -196 512 C-196.66 512 -197.32 512 -198 512 C-197.67 513.98 -197.34 515.96 -197 518 C-197.99 518.33 -198.98 518.66 -200 519 C-200.33 519.99 -200.66 520.98 -201 522 C-201.66 522 -202.32 522 -203 522 C-202.63 523.36 -202.63 523.36 -202.25 524.75 C-202 528 -202 528 -203.81 530.38 C-206 532 -206 532 -208 532 C-207.75 532.91 -207.51 533.82 -207.25 534.75 C-207 538 -207 538 -208.81 540.38 C-211 542 -211 542 -213 542 C-212.85 543.02 -212.85 543.02 -212.69 544.06 C-213.13 548.18 -215.17 551.02 -218 554 C-218.66 554 -219.32 554 -220 554 C-220.09 554.82 -220.09 554.82 -220.18 555.66 C-221.35 559.01 -223.68 561.04 -226.19 563.44 C-226.69 563.93 -227.19 564.41 -227.7 564.92 C-231.01 568.13 -234.41 571.11 -238 574 C-239.02 575.05 -239.02 575.05 -240.06 576.12 C-242.81 578.79 -245.72 580.5 -249.28 581.89 C-253.41 583.57 -257.3 585.7 -261.26 587.76 C-264 589 -264 589 -267 589 C-267.33 589.99 -267.66 590.98 -268 592 C-270.97 592 -273.94 592 -277 592 C-277 592.66 -277 593.32 -277 594 C-278.13 594.14 -279.27 594.29 -280.44 594.44 C-283.81 594.61 -283.81 594.61 -285 596 C-287 596.1 -289 596.13 -291.01 596.13 C-292.32 596.13 -293.64 596.14 -295 596.14 C-296.48 596.14 -297.96 596.14 -299.45 596.13 C-301.01 596.14 -302.58 596.14 -304.14 596.14 C-308.49 596.15 -312.83 596.15 -317.17 596.15 C-321.88 596.15 -326.59 596.15 -331.3 596.16 C-340.65 596.17 -350.01 596.17 -359.37 596.17 C-370.57 596.18 -381.77 596.19 -392.97 596.19 C-420.05 596.22 -447.12 596.23 -474.2 596.23 C-487.01 596.24 -499.81 596.24 -512.61 596.25 C-555.73 596.27 -598.85 596.28 -641.97 596.29 C-645.41 596.29 -648.85 596.29 -652.29 596.29 C-653.31 596.29 -653.31 596.29 -654.35 596.29 C-661.27 596.29 -668.18 596.29 -675.09 596.29 C-676.47 596.3 -677.86 596.3 -679.24 596.3 C-723.74 596.3 -768.24 596.33 -812.74 596.36 C-860.44 596.39 -908.15 596.41 -955.86 596.42 C-961.02 596.42 -966.18 596.42 -971.33 596.42 C-972.61 596.42 -973.88 596.42 -975.18 596.42 C-995.65 596.42 -1016.12 596.44 -1036.58 596.46 C-1057.15 596.48 -1077.71 596.48 -1098.27 596.47 C-1110.5 596.47 -1122.72 596.47 -1134.95 596.5 C-1143.11 596.51 -1151.27 596.51 -1159.43 596.5 C-1164.08 596.49 -1168.74 596.49 -1173.39 596.51 C-1177.62 596.52 -1181.86 596.52 -1186.09 596.5 C-1187.61 596.5 -1189.13 596.5 -1190.66 596.51 C-1199.17 596.57 -1206.33 596.01 -1214 592 C-1215.42 591.26 -1215.42 591.26 -1216.88 590.5 C-1219.21 588.85 -1221.13 587.15 -1223 585 C-1223 584.34 -1223 583.68 -1223 583 C-1223.99 582.67 -1224.98 582.34 -1226 582 C-1226.33 581.34 -1226.66 580.68 -1227 580 C-1227.33 580 -1227.66 580 -1228 580 C-1228.12 578.89 -1228.25 577.77 -1228.38 576.62 C-1228.65 572.97 -1228.65 572.97 -1231 571 C-1230.34 571 -1229.68 571 -1229 571 C-1229.02 569.73 -1229.05 568.47 -1229.07 567.16 C-1229.09 565.46 -1229.11 563.76 -1229.12 562.06 C-1229.14 561.23 -1229.16 560.4 -1229.18 559.54 C-1229.24 551.6 -1228.38 544.75 -1224 538 C-1223.51 536.39 -1223.51 536.39 -1223 534.75 C-1222.67 533.84 -1222.34 532.93 -1222 532 C-1221.01 531.67 -1220.02 531.34 -1219 531 C-1218.88 529.91 -1218.75 528.81 -1218.62 527.69 C-1218 524 -1218 524 -1216 521 C-1215.34 521 -1214.68 521 -1214 521 C-1213.9 519.93 -1213.79 518.86 -1213.69 517.75 C-1213.01 514.04 -1212.3 512.8 -1210 510 C-1210 509.01 -1210 508.02 -1210 507 C-1209.34 507 -1208.68 507 -1208 507 C-1207.81 505.89 -1207.81 505.89 -1207.62 504.75 C-1207.04 502.17 -1206.37 500.25 -1205 498 C-1204.34 497.67 -1203.68 497.34 -1203 497 C-1202.64 495.34 -1202.31 493.67 -1202 492 C-1200.42 488.21 -1200.42 488.21 -1198 487 C-1197.64 485.34 -1197.31 483.67 -1197 482 C-1195.42 478.21 -1195.42 478.21 -1193 477 C-1193 475.02 -1193 473.04 -1193 471 C-1192.01 470.67 -1191.02 470.34 -1190 470 C-1189.3 468.2 -1189.3 468.2 -1189 466 C-1188.81 465.09 -1188.63 464.18 -1188.44 463.25 C-1188.29 462.51 -1188.15 461.76 -1188 461 C-1187.01 460.67 -1186.02 460.34 -1185 460 C-1184.29 458.24 -1184.29 458.24 -1184 456 C-1183.72 454.39 -1183.72 454.39 -1183.44 452.75 C-1183.29 451.84 -1183.15 450.93 -1183 450 C-1181.68 450 -1180.36 450 -1179 450 C-1178.67 446.7 -1178.34 443.4 -1178 440 C-1176.68 440 -1175.36 440 -1174 440 C-1173.67 436.7 -1173.34 433.4 -1173 430 C-1171.68 430 -1170.36 430 -1169 430 C-1168.51 424.06 -1168.51 424.06 -1168 418 C-1166.68 418.66 -1165.36 419.32 -1164 420 C-1163.51 414.06 -1163.51 414.06 -1163 408 C-1162.34 408.66 -1161.68 409.32 -1161 410 C-1158.61 406.17 -1158.44 402.4 -1158 398 C-1157.34 398.66 -1156.68 399.32 -1156 400 C-1154.12 396.73 -1153.51 393.72 -1153 390 C-1152.01 389.67 -1151.02 389.34 -1150 389 C-1149.3 386.96 -1149.3 386.96 -1149 384.56 C-1148.62 382.13 -1148.62 382.13 -1148 380 C-1147.01 379.34 -1146.02 378.68 -1145 378 C-1144.21 375.81 -1144.21 375.81 -1143.81 373.38 C-1143.65 372.56 -1143.5 371.74 -1143.33 370.9 C-1143.22 370.27 -1143.11 369.65 -1143 369 C-1142.34 369 -1141.68 369 -1141 369 C-1141.66 368.34 -1142.32 367.68 -1143 367 C-1141.68 367 -1140.36 367 -1139 367 C-1138.67 364.36 -1138.34 361.72 -1138 359 C-1137.34 359 -1136.68 359 -1136 359 C-1136.66 358.34 -1137.32 357.68 -1138 357 C-1136.68 357 -1135.36 357 -1134 357 C-1133.67 354.36 -1133.34 351.72 -1133 349 C-1132.34 349 -1131.68 349 -1131 349 C-1131.66 348.34 -1132.32 347.68 -1133 347 C-1131.68 347 -1130.36 347 -1129 347 C-1128.67 343.7 -1128.34 340.4 -1128 337 C-1126.68 337 -1125.36 337 -1124 337 C-1123.81 335.05 -1123.81 335.05 -1123.62 333.06 C-1123.41 330.85 -1123.41 330.85 -1123 329 C-1121.67 328.33 -1120.33 327.67 -1119 327 C-1118.31 324.88 -1118.31 324.88 -1117.88 322.44 C-1117.71 321.61 -1117.54 320.78 -1117.37 319.93 C-1117.25 319.3 -1117.12 318.66 -1117 318 C-1116.01 318 -1115.02 318 -1114 318 C-1114 315.69 -1114 313.38 -1114 311 C-1113.34 311 -1112.68 311 -1112 311 C-1112 310.01 -1112 309.02 -1112 308 C-1111.01 308 -1110.02 308 -1109 308 C-1108.34 304.37 -1107.68 300.74 -1107 297 C-1106.34 297 -1105.68 297 -1105 297 C-1104.01 293.7 -1103.02 290.4 -1102 287 C-1101.34 287 -1100.68 287 -1100 287 C-1099.01 283.7 -1098.02 280.4 -1097 277 C-1096.34 277 -1095.68 277 -1095 277 C-1094.01 273.7 -1093.02 270.4 -1092 267 C-1091.34 267 -1090.68 267 -1090 267 C-1089.01 263.7 -1088.02 260.4 -1087 257 C-1086.34 257 -1085.68 257 -1085 257 C-1084.01 253.7 -1083.02 250.4 -1082 247 C-1081.01 247 -1080.02 247 -1079 247 C-1078.78 245.36 -1078.78 245.36 -1078.56 243.69 C-1078 240 -1078 240 -1077 237 C-1076.01 237 -1075.02 237 -1074 237 C-1073.78 235.36 -1073.78 235.36 -1073.56 233.69 C-1073 230 -1073 230 -1072 227 C-1071.01 227 -1070.02 227 -1069 227 C-1068.78 225.36 -1068.78 225.36 -1068.56 223.69 C-1067.63 217.54 -1067.63 217.54 -1065.56 215.75 C-1063.7 213.92 -1063.7 213.92 -1063 210.5 C-1061.98 206.92 -1061.44 206.44 -1059 204 C-1058.67 202.85 -1058.34 201.69 -1058 200.5 C-1056.98 196.92 -1056.44 196.44 -1054 194 C-1053.32 191.67 -1052.65 189.34 -1052 187 C-1051.34 186.67 -1050.68 186.34 -1050 186 C-1049.17 183.92 -1049.17 183.92 -1048.5 181.5 C-1047.78 179.03 -1047.78 179.03 -1047 177 C-1046.34 176.67 -1045.68 176.34 -1045 176 C-1044.17 173.92 -1044.17 173.92 -1043.5 171.5 C-1042.78 169.03 -1042.78 169.03 -1042 167 C-1041.34 166.67 -1040.68 166.34 -1040 166 C-1039.16 163.71 -1038.53 161.39 -1037.88 159.03 C-1037.44 158.03 -1037.44 158.03 -1037 157 C-1036.01 156.67 -1035.02 156.34 -1034 156 C-1033.88 154.91 -1033.75 153.81 -1033.62 152.69 C-1033 149 -1033 149 -1031 146 C-1030.34 146 -1029.68 146 -1029 146 C-1028.88 144.91 -1028.75 143.81 -1028.62 142.69 C-1028 139 -1028 139 -1026 136 C-1025.34 136 -1024.68 136 -1024 136 C-1023.88 134.91 -1023.75 133.81 -1023.62 132.69 C-1023 129 -1023 129 -1021 126 C-1020.34 126 -1019.68 126 -1019 126 C-1019.33 124.68 -1019.66 123.36 -1020 122 C-1019.34 122 -1018.68 122 -1018 122 C-1017.67 120.35 -1017.34 118.7 -1017 117 C-1016.01 116.67 -1015.02 116.34 -1014 116 C-1013.92 114.99 -1013.84 113.98 -1013.75 112.94 C-1013.14 108.6 -1011.27 105.72 -1009 102 C-1008.31 100.34 -1007.64 98.68 -1007 97 C-1005.29 93.14 -1005.29 93.14 -1003 92 C-1002.64 90.34 -1002.31 88.67 -1002 87 C-1000.42 83.21 -1000.42 83.21 -998 82 C-997.64 80.34 -997.31 78.67 -997 77 C-996.33 75.67 -995.67 74.33 -995 73 C-994.69 71.78 -994.38 70.57 -994.06 69.31 C-993.71 68.22 -993.36 67.13 -993 66 C-992.01 65.67 -991.02 65.34 -990 65 C-989.09 63.27 -989.09 63.27 -988.5 61.19 C-987.41 57.99 -986.25 55.58 -984 53 C-984.33 52.34 -984.66 51.68 -985 51 C-984.34 51 -983.68 51 -983 51 C-982.73 50.36 -982.46 49.72 -982.19 49.06 C-981 47 -981 47 -978 46 C-976.78 43.5 -976.78 43.5 -976 41 C-975.34 41 -974.68 41 -974 41 C-973.73 40.2 -973.46 39.39 -973.19 38.56 C-972.8 37.72 -972.4 36.87 -972 36 C-970.51 35.5 -970.51 35.5 -969 35 C-968.32 33.68 -967.65 32.34 -967 31 C-965.51 30.01 -965.51 30.01 -964 29 C-963.34 28.01 -962.68 27.02 -962 26 C-960.68 25.32 -959.34 24.65 -958 24 C-957.2 23.2 -957.2 23.2 -956.38 22.38 C-955.69 21.69 -955.69 21.69 -955 21 C-954.34 21 -953.68 21 -953 21 C-952.77 20.38 -952.55 19.76 -952.31 19.12 C-950.59 16.34 -949.09 15.9 -946 15 C-945.01 15 -944.02 15 -943 15 C-942.67 14.01 -942.34 13.02 -942 12 C-939.93 11.05 -939.93 11.05 -937.44 10.31 C-936.61 10.06 -935.78 9.81 -934.93 9.55 C-934.3 9.37 -933.66 9.19 -933 9 C-933 8.34 -933 7.68 -933 7 C-929.04 6.01 -925.08 5.02 -921 4 C-921 3.34 -921 2.68 -921 2 C-902.33 -0.26 -883.75 -0.3 -864.98 -0.29 C-860.38 -0.28 -855.77 -0.3 -851.16 -0.3 C-843.11 -0.32 -835.05 -0.33 -827 -0.33 C-815.02 -0.33 -803.05 -0.35 -791.07 -0.37 C-770.92 -0.39 -750.77 -0.41 -730.61 -0.43 C-710.67 -0.44 -690.73 -0.46 -670.78 -0.48 C-669.54 -0.48 -668.3 -0.48 -667.02 -0.49 C-661.98 -0.49 -656.94 -0.5 -651.9 -0.5 C-616.74 -0.54 -581.59 -0.58 -546.43 -0.61 C-545.44 -0.61 -545.44 -0.61 -544.43 -0.61 C-533.68 -0.62 -522.94 -0.63 -512.19 -0.63 C-469.52 -0.67 -426.85 -0.71 -384.18 -0.76 C-382.83 -0.76 -381.48 -0.76 -380.13 -0.76 C-377.43 -0.77 -374.74 -0.77 -372.04 -0.77 C-365.99 -0.78 -359.94 -0.79 -353.9 -0.79 C-352.56 -0.79 -351.22 -0.8 -349.88 -0.8 C-314.12 -0.84 -278.37 -0.87 -242.62 -0.91 C-240.75 -0.91 -240.75 -0.91 -238.84 -0.91 C-228.77 -0.92 -228.77 -0.92 -223.79 -0.92 C-206.32 -0.94 -188.85 -0.96 -171.38 -0.98 C-148.89 -1 -126.4 -1.02 -103.9 -1.04 C-92 -1.05 -80.1 -1.06 -68.19 -1.07 C-60.25 -1.08 -52.32 -1.09 -44.38 -1.09 C-39.85 -1.09 -35.32 -1.1 -30.79 -1.1 C-26.67 -1.11 -22.56 -1.11 -18.45 -1.11 C-16.96 -1.11 -15.47 -1.11 -13.99 -1.12 C-11.98 -1.12 -9.98 -1.12 -7.97 -1.12 C-6.86 -1.12 -5.75 -1.12 -4.6 -1.12 C-2 -1 -2 -1 0 0 Z M-1127 338 C-1126.67 338.66 -1126.34 339.32 -1126 340 C-1125.67 339.34 -1125.34 338.68 -1125 338 C-1125.66 338 -1126.32 338 -1127 338 Z M-220 548 C-219 550 -219 550 -219 550 Z " fill="#000002" transform="translate(1247,488)"/>
<path d="M0 0 C1.19 -0 1.19 -0 2.4 -0 C5.05 -0 7.7 0 10.35 0.01 C12.25 0.01 14.15 0.01 16.06 0.01 C21.21 0.01 26.37 0.01 31.53 0.02 C36.93 0.03 42.32 0.03 47.71 0.03 C57.92 0.03 68.13 0.04 78.34 0.05 C89.97 0.06 101.59 0.06 113.22 0.07 C137.13 0.08 161.04 0.1 184.95 0.12 C185.28 1.11 185.61 2.1 185.95 3.12 C187.6 3.12 189.25 3.12 190.95 3.12 C190.95 3.78 190.95 4.44 190.95 5.12 C191.58 5.17 192.2 5.22 192.85 5.27 C194.08 5.38 194.08 5.38 195.33 5.5 C196.54 5.6 196.54 5.6 197.79 5.71 C199.95 6.12 199.95 6.12 201.95 8.12 C203.27 8.12 204.59 8.12 205.95 8.12 C205.95 8.78 205.95 9.44 205.95 10.12 C208.43 11.11 208.43 11.11 210.95 12.12 C210.95 12.78 210.95 13.44 210.95 14.12 C212.6 13.79 214.25 13.46 215.95 13.12 C215.95 13.78 215.95 14.44 215.95 15.12 C216.55 15.37 217.15 15.62 217.76 15.87 C220.25 17.29 221.27 18.85 222.95 21.12 C223.94 21.45 224.93 21.78 225.95 22.12 C226.28 22.78 226.61 23.44 226.95 24.12 C227.61 24.41 228.27 24.7 228.95 25 C230.95 26.12 230.95 26.12 231.7 28.25 C231.83 29.17 231.83 29.17 231.95 30.12 C232.94 30.12 233.93 30.12 234.95 30.12 C236.95 32.79 238.62 35.4 240.01 38.43 C240.9 40.48 240.9 40.48 243.95 41.12 C244.9 42.9 244.9 42.9 245.64 45.06 C245.89 45.77 246.14 46.48 246.4 47.21 C246.95 49.12 246.95 49.12 246.95 51.12 C247.61 51.12 248.27 51.12 248.95 51.12 C249.75 52.95 250.54 54.78 251.33 56.62 C251.77 57.64 252.21 58.66 252.66 59.71 C253.85 62.85 254.7 65.87 255.46 69.13 C255.91 70.96 256.46 72.77 257.02 74.57 C260.55 87.28 260.27 99.8 260.07 112.88 C260.06 113.65 260.04 114.43 260.03 115.23 C260.01 116.7 259.98 118.17 259.94 119.64 C259.88 123 260.05 125.89 260.95 129.12 C261.52 129.12 262.09 129.12 262.68 129.11 C296.48 128.97 330.29 128.82 364.09 128.69 C368.14 128.67 372.2 128.65 376.25 128.64 C377.06 128.63 377.87 128.63 378.7 128.63 C391.79 128.58 404.87 128.52 417.96 128.46 C431.38 128.4 444.8 128.35 458.22 128.3 C466.51 128.26 474.79 128.23 483.08 128.19 C488.75 128.16 494.43 128.14 500.1 128.12 C503.38 128.11 506.66 128.1 509.94 128.08 C513.49 128.06 517.03 128.05 520.58 128.04 C521.63 128.03 522.68 128.02 523.76 128.02 C525.17 128.02 525.17 128.02 526.61 128.01 C527.43 128.01 528.25 128.01 529.1 128 C530.95 128.12 530.95 128.12 531.95 129.12 C535.44 129.37 538.94 129.5 542.44 129.64 C546.09 130.14 547.93 131.12 550.95 133.12 C553.66 133.37 553.66 133.37 555.95 133.12 C555.95 133.78 555.95 134.44 555.95 135.12 C556.72 135.46 556.72 135.46 557.51 135.81 C561.18 137.78 564.99 140.16 567.95 143.12 C568.94 143.12 569.93 143.12 570.95 143.12 C574.45 145.96 576 149.13 577.95 153.12 C578.66 153.83 578.66 153.83 579.39 154.56 C582.55 157.72 584.95 161.61 584.95 166.12 C585.61 166.12 586.27 166.12 586.95 166.12 C590.35 169.24 590.5 172.74 590.94 177.1 C590.95 179.12 590.95 179.12 589.95 181.12 C590.61 181.12 591.27 181.12 591.95 181.12 C593.09 190.37 593.14 199.6 593.14 208.91 C593.14 211.51 593.16 214.11 593.18 216.71 C593.18 218.38 593.18 220.04 593.18 221.71 C593.19 222.48 593.2 223.25 593.2 224.04 C593.18 228.47 592.65 230.87 590.95 235.12 C366.55 235.45 142.15 235.78 -89.05 236.12 C-89.38 236.78 -89.71 237.44 -90.05 238.12 C-96.59 241 -103 241.53 -110.05 241.12 C-110.05 241.78 -110.05 242.44 -110.05 243.12 C-115.35 245.27 -119.27 246.23 -125.05 246.12 C-125.05 246.78 -125.05 247.44 -125.05 248.12 C-128.42 250.55 -129.78 251.12 -134.05 251.12 C-134.38 251.78 -134.71 252.44 -135.05 253.12 C-136.04 253.12 -137.03 253.12 -138.05 253.12 C-138.38 254.11 -138.71 255.1 -139.05 256.12 C-141.03 256.12 -143.01 256.12 -145.05 256.12 C-145.05 256.78 -145.05 257.44 -145.05 258.12 C-148.78 261.62 -154.68 266.12 -160.05 266.12 C-160.05 266.78 -160.05 267.44 -160.05 268.12 C-162.16 270.71 -163.34 271.99 -166.67 272.62 C-167.46 272.79 -168.24 272.95 -169.05 273.12 C-169.35 273.72 -169.64 274.31 -169.95 274.92 C-171.26 277.55 -172.81 278.87 -175.05 280.75 C-177.13 282.49 -179.13 284.2 -181.05 286.12 C-181.71 286.22 -182.37 286.33 -183.05 286.43 C-183.71 286.66 -184.37 286.89 -185.05 287.12 C-185.78 288.76 -186.44 290.43 -187.05 292.12 C-189.05 294.93 -189.05 294.93 -191.05 297.12 C-191.71 297.12 -192.37 297.12 -193.05 297.12 C-193.32 297.92 -193.58 298.73 -193.86 299.56 C-194.25 300.4 -194.64 301.25 -195.05 302.12 C-196.04 302.45 -197.03 302.78 -198.05 303.12 C-198.05 304.11 -198.05 305.1 -198.05 306.12 C-198.71 306.45 -199.37 306.78 -200.05 307.12 C-201.38 309.66 -202.55 312.26 -203.73 314.87 C-205.05 317.12 -205.05 317.12 -208.05 318.12 C-208.05 319.11 -208.05 320.1 -208.05 321.12 C-208.71 321.45 -209.37 321.78 -210.05 322.12 C-210.74 324.11 -211.41 326.11 -212.05 328.12 C-212.71 329.11 -213.37 330.1 -214.05 331.12 C-214.71 331.12 -215.37 331.12 -216.05 331.12 C-215.99 332.03 -215.92 332.94 -215.86 333.87 C-216.07 337.41 -216.58 338.65 -219.05 341.12 C-219.71 341.12 -220.37 341.12 -221.05 341.12 C-220.99 342.03 -220.92 342.94 -220.86 343.87 C-221.07 347.41 -221.58 348.65 -224.05 351.12 C-224.71 351.12 -225.37 351.12 -226.05 351.12 C-225.8 352.03 -225.55 352.94 -225.3 353.87 C-225.05 357.12 -225.05 357.12 -226.86 359.5 C-229.05 361.12 -229.05 361.12 -231.05 361.12 C-230.8 362.03 -230.55 362.94 -230.3 363.87 C-230.05 367.12 -230.05 367.12 -231.86 369.5 C-234.05 371.12 -234.05 371.12 -236.05 371.12 C-235.72 373.1 -235.39 375.08 -235.05 377.12 C-236.04 377.45 -237.03 377.78 -238.05 378.12 C-238.38 379.11 -238.71 380.1 -239.05 381.12 C-239.71 381.12 -240.37 381.12 -241.05 381.12 C-240.72 383.1 -240.39 385.08 -240.05 387.12 C-241.04 387.45 -242.03 387.78 -243.05 388.12 C-243.38 389.11 -243.71 390.1 -244.05 391.12 C-244.71 391.12 -245.37 391.12 -246.05 391.12 C-245.72 393.1 -245.39 395.08 -245.05 397.12 C-246.04 397.45 -247.03 397.78 -248.05 398.12 C-248.38 399.11 -248.71 400.1 -249.05 401.12 C-249.71 401.12 -250.37 401.12 -251.05 401.12 C-250.72 403.1 -250.39 405.08 -250.05 407.12 C-251.04 407.45 -252.03 407.78 -253.05 408.12 C-253.38 409.11 -253.71 410.1 -254.05 411.12 C-254.71 411.12 -255.37 411.12 -256.05 411.12 C-255.8 412.03 -255.55 412.94 -255.3 413.87 C-255.05 417.12 -255.05 417.12 -256.86 419.5 C-259.05 421.12 -259.05 421.12 -261.05 421.12 C-260.8 422.03 -260.55 422.94 -260.3 423.87 C-260.05 427.12 -260.05 427.12 -261.86 429.5 C-264.05 431.12 -264.05 431.12 -266.05 431.12 C-265.8 432.03 -265.55 432.94 -265.3 433.87 C-265.05 437.12 -265.05 437.12 -266.86 439.5 C-269.05 441.12 -269.05 441.12 -271.05 441.12 C-270.72 443.43 -270.39 445.74 -270.05 448.12 C-273.8 451.12 -273.8 451.12 -276.05 451.12 C-275.72 453.43 -275.39 455.74 -275.05 458.12 C-278.8 461.12 -278.8 461.12 -281.05 461.12 C-280.72 463.43 -280.39 465.74 -280.05 468.12 C-283.8 471.12 -283.8 471.12 -286.05 471.12 C-285.72 473.43 -285.39 475.74 -285.05 478.12 C-288.8 481.12 -288.8 481.12 -291.05 481.12 C-290.72 483.43 -290.39 485.74 -290.05 488.12 C-293.8 491.12 -293.8 491.12 -296.05 491.12 C-295.55 494.59 -295.55 494.59 -295.05 498.12 C-298.8 501.12 -298.8 501.12 -301.05 501.12 C-300.78 502.19 -300.51 503.27 -300.24 504.37 C-300.17 505.61 -300.11 506.85 -300.05 508.12 C-301.7 509.47 -303.37 510.8 -305.05 512.12 C-305.8 514.85 -305.91 517.27 -306.05 520.12 C-306.71 520.12 -307.37 520.12 -308.05 520.12 C-308.38 522.1 -308.71 524.08 -309.05 526.12 C-309.71 526.12 -310.37 526.12 -311.05 526.12 C-311.17 526.84 -311.3 527.56 -311.42 528.31 C-312.04 531.08 -312.93 533.52 -314.05 536.12 C-314.71 536.12 -315.37 536.12 -316.05 536.12 C-316.17 536.84 -316.3 537.56 -316.42 538.31 C-317.04 541.08 -317.93 543.52 -319.05 546.12 C-319.71 546.12 -320.37 546.12 -321.05 546.12 C-321.17 546.84 -321.3 547.56 -321.42 548.31 C-322.04 551.08 -322.93 553.52 -324.05 556.12 C-324.71 556.12 -325.37 556.12 -326.05 556.12 C-326.17 556.84 -326.3 557.56 -326.42 558.31 C-327.04 561.08 -327.93 563.52 -329.05 566.12 C-329.71 566.12 -330.37 566.12 -331.05 566.12 C-331.17 566.84 -331.3 567.56 -331.42 568.31 C-332.04 571.08 -332.93 573.52 -334.05 576.12 C-334.71 576.12 -335.37 576.12 -336.05 576.12 C-336.17 576.84 -336.3 577.56 -336.42 578.31 C-337.04 581.08 -337.93 583.52 -339.05 586.12 C-339.71 586.12 -340.37 586.12 -341.05 586.12 C-341.05 587.77 -341.05 589.42 -341.05 591.12 C-341.71 591.12 -342.37 591.12 -343.05 591.12 C-343.54 593.6 -343.54 593.6 -344.05 596.12 C-344.71 596.12 -345.37 596.12 -346.05 596.12 C-346.05 597.77 -346.05 599.42 -346.05 601.12 C-346.71 601.12 -347.37 601.12 -348.05 601.12 C-348.54 603.6 -348.54 603.6 -349.05 606.12 C-349.71 606.12 -350.37 606.12 -351.05 606.12 C-351.05 607.77 -351.05 609.42 -351.05 611.12 C-351.71 611.12 -352.37 611.12 -353.05 611.12 C-353.54 613.6 -353.54 613.6 -354.05 616.12 C-354.71 616.12 -355.37 616.12 -356.05 616.12 C-355.99 616.84 -355.92 617.56 -355.86 618.31 C-356.09 621.68 -357.05 623.43 -359.05 626.12 C-359.71 626.12 -360.37 626.12 -361.05 626.12 C-360.99 626.84 -360.92 627.56 -360.86 628.31 C-361.09 631.68 -362.05 633.43 -364.05 636.12 C-364.71 636.12 -365.37 636.12 -366.05 636.12 C-365.99 636.84 -365.92 637.56 -365.86 638.31 C-366.09 641.68 -367.05 643.43 -369.05 646.12 C-369.71 646.12 -370.37 646.12 -371.05 646.12 C-370.99 646.84 -370.92 647.56 -370.86 648.31 C-371.09 651.68 -372.05 653.43 -374.05 656.12 C-374.71 656.12 -375.37 656.12 -376.05 656.12 C-375.99 656.84 -375.92 657.56 -375.86 658.31 C-376.09 661.68 -377.05 663.43 -379.05 666.12 C-379.71 666.12 -380.37 666.12 -381.05 666.12 C-380.99 666.84 -380.92 667.56 -380.86 668.31 C-381.09 671.68 -382.05 673.43 -384.05 676.12 C-384.71 676.12 -385.37 676.12 -386.05 676.12 C-386.05 678.1 -386.05 680.08 -386.05 682.12 C-386.71 682.12 -387.37 682.12 -388.05 682.12 C-388.38 683.44 -388.71 684.76 -389.05 686.12 C-389.71 686.12 -390.37 686.12 -391.05 686.12 C-391.05 688.1 -391.05 690.08 -391.05 692.12 C-391.71 692.12 -392.37 692.12 -393.05 692.12 C-393.38 693.44 -393.71 694.76 -394.05 696.12 C-394.71 696.12 -395.37 696.12 -396.05 696.12 C-396.05 698.1 -396.05 700.08 -396.05 702.12 C-396.71 702.12 -397.37 702.12 -398.05 702.12 C-398.38 703.44 -398.71 704.76 -399.05 706.12 C-399.71 706.12 -400.37 706.12 -401.05 706.12 C-401.05 708.1 -401.05 710.08 -401.05 712.12 C-401.71 712.12 -402.37 712.12 -403.05 712.12 C-403.38 713.44 -403.71 714.76 -404.05 716.12 C-404.71 716.12 -405.37 716.12 -406.05 716.12 C-406.05 718.1 -406.05 720.08 -406.05 722.12 C-406.71 722.12 -407.37 722.12 -408.05 722.12 C-408.05 723.11 -408.05 724.1 -408.05 725.12 C-408.71 725.45 -409.37 725.78 -410.05 726.12 C-410.51 727.79 -410.51 727.79 -410.99 729.5 C-412.06 733.16 -412.56 733.63 -415.05 736.12 C-415.79 738.43 -416.47 740.76 -417.05 743.12 C-418.04 743.12 -419.03 743.12 -420.05 743.12 C-420.05 554.36 -420.05 365.6 -420.05 171.12 C-419.06 171.12 -418.07 171.12 -417.05 171.12 C-417.03 170.53 -417.02 169.94 -417.01 169.33 C-416.74 164.97 -416.51 162.7 -413.74 159.18 C-411.53 157.49 -409.61 156.16 -407.05 155.12 C-407.38 153.47 -407.71 151.82 -408.05 150.12 C-407.39 150.12 -406.73 150.12 -406.05 150.12 C-405.79 149.5 -405.53 148.87 -405.27 148.23 C-403.61 145.36 -401.33 144.73 -398.4 143.4 C-394.7 141.39 -391.69 138.61 -388.54 135.83 C-385.67 133.86 -383.45 133.6 -380.05 133.12 C-379.72 132.46 -379.39 131.8 -379.05 131.12 C-370.25 128.04 -359.34 128.97 -350.12 129 C-349 129 -347.87 129 -346.71 129 C-342.98 129 -339.24 129 -335.51 129.01 C-332.82 129.01 -330.13 129.01 -327.44 129.01 C-321.66 129.01 -315.89 129.01 -310.12 129.01 C-301.77 129.02 -293.42 129.03 -285.07 129.03 C-271.52 129.03 -257.98 129.04 -244.43 129.04 C-231.28 129.05 -218.12 129.06 -204.97 129.07 C-204.16 129.07 -203.35 129.07 -202.51 129.07 C-198.44 129.07 -194.36 129.07 -190.29 129.07 C-156.54 129.08 -122.8 129.1 -89.05 129.12 C-89.21 128.36 -89.37 127.6 -89.54 126.82 C-90.49 121.78 -90.23 116.63 -90.23 111.52 C-90.24 109.49 -90.25 107.47 -90.27 105.45 C-90.28 104.17 -90.28 102.9 -90.28 101.58 C-90.28 100.41 -90.29 99.25 -90.29 98.04 C-90.05 95.12 -90.05 95.12 -88.05 92.12 C-87.64 89.79 -87.64 89.79 -87.52 87.19 C-87.45 86.23 -87.38 85.27 -87.31 84.28 C-87.18 82.27 -87.05 80.25 -86.93 78.23 C-86.54 72.99 -86.11 69.52 -83.05 65.12 C-82.27 62.24 -82.27 62.24 -81.86 59.31 C-81.62 57.84 -81.62 57.84 -81.38 56.35 C-81.22 55.25 -81.22 55.25 -81.05 54.12 C-79.56 53.63 -79.56 53.63 -78.05 53.12 C-77.24 51.01 -77.24 51.01 -76.86 48.56 C-76.7 47.73 -76.54 46.91 -76.38 46.05 C-76.22 45.1 -76.22 45.1 -76.05 44.12 C-75.06 44.12 -74.07 44.12 -73.05 44.12 C-72.82 43.23 -72.59 42.35 -72.35 41.44 C-70.87 37.66 -69.17 35.83 -66.24 33.06 C-65.38 32.24 -64.53 31.43 -63.65 30.59 C-62.79 29.77 -61.93 28.96 -61.05 28.12 C-60.18 27.25 -59.32 26.38 -58.42 25.48 C-52.01 19.1 -52.01 19.1 -48.05 17.12 C-47.72 16.46 -47.39 15.8 -47.05 15.12 C-44.73 14.71 -42.39 14.38 -40.05 14.12 C-39.72 12.8 -39.39 11.48 -39.05 10.12 C-38.48 10.01 -37.92 9.9 -37.33 9.79 C-36.6 9.63 -35.87 9.47 -35.11 9.31 C-34.38 9.16 -33.65 9.01 -32.9 8.85 C-32.29 8.61 -31.68 8.37 -31.05 8.12 C-30.72 7.13 -30.39 6.14 -30.05 5.12 C-28.98 5 -27.91 4.88 -26.8 4.75 C-25.41 4.58 -24.01 4.41 -22.61 4.25 C-21.9 4.17 -21.2 4.09 -20.47 4.01 C-18.65 3.78 -16.85 3.46 -15.05 3.12 C-14.72 2.46 -14.39 1.8 -14.05 1.12 C-9.4 -0 -4.76 -0.02 0 0 Z M-4.61 68.06 C-5.64 68.62 -6.68 69.19 -7.74 69.77 C-8.5 70.22 -9.26 70.66 -10.05 71.12 C-10.05 71.78 -10.05 72.44 -10.05 73.12 C-11.04 73.12 -12.03 73.12 -13.05 73.12 C-13.32 73.74 -13.58 74.36 -13.86 75 C-15.05 77.12 -15.05 77.12 -18.05 79.12 C-18.05 79.78 -18.05 80.44 -18.05 81.12 C-18.71 81.12 -19.37 81.12 -20.05 81.12 C-21.5 84.01 -21.48 86.93 -21.77 90.12 C-22.05 92.12 -22.05 92.12 -23.05 93.12 C-23.05 105 -23.05 116.88 -23.05 129.12 C48.23 129.12 119.51 129.12 192.95 129.12 C194.11 125.66 194.08 122.95 194.08 119.29 C194.09 118.62 194.09 117.96 194.09 117.27 C194.09 115.86 194.09 114.45 194.08 113.03 C194.08 110.89 194.08 108.75 194.09 106.61 C194.09 105.23 194.09 103.86 194.08 102.48 C194.08 100.62 194.08 100.62 194.08 98.71 C193.86 91.05 193.86 91.05 190.95 84.12 C189.96 83.46 188.97 82.8 187.95 82.12 C187.99 81.36 188.03 80.59 188.08 79.81 C188.2 76.89 188.2 76.89 185.76 74.37 C182.96 72.13 181.47 71.42 177.95 71.12 C177.62 70.13 177.29 69.14 176.95 68.12 C173.59 65.73 170.41 65.88 166.38 65.89 C165.39 65.88 165.39 65.88 164.39 65.88 C162.18 65.88 159.97 65.9 157.77 65.91 C156.19 65.91 154.61 65.91 153.02 65.91 C149.62 65.92 146.21 65.93 142.8 65.94 C137.41 65.96 132.02 65.97 126.63 65.98 C118.09 65.99 109.56 66.01 101.02 66.03 C85.75 66.08 70.49 66.11 55.22 66.13 C49.86 66.14 44.51 66.16 39.15 66.17 C35.81 66.18 32.47 66.19 29.13 66.2 C27.59 66.2 26.05 66.21 24.51 66.21 C11.39 66.27 11.39 66.27 5.68 65.54 C1.23 65.04 -0.75 65.89 -4.61 68.06 Z M10.95 65.12 C10.95 65.45 10.95 65.78 10.95 66.12 C63.75 66.12 116.55 66.12 170.95 66.12 C170.95 65.79 170.95 65.46 170.95 65.12 C118.15 65.12 65.35 65.12 10.95 65.12 Z M-17.05 71.12 C-17.38 72.11 -17.71 73.1 -18.05 74.12 C-17.39 74.12 -16.73 74.12 -16.05 74.12 C-16.38 73.13 -16.71 72.14 -17.05 71.12 Z M588.95 174.12 C589.95 177.12 589.95 177.12 589.95 177.12 Z M-172.05 272.12 C-173.04 273.61 -173.04 273.61 -174.05 275.12 C-173.06 274.79 -172.07 274.46 -171.05 274.12 C-171.38 273.46 -171.71 272.8 -172.05 272.12 Z M-178.05 277.12 C-178.71 277.78 -179.37 278.44 -180.05 279.12 C-178.73 278.79 -177.41 278.46 -176.05 278.12 C-176.71 277.79 -177.37 277.46 -178.05 277.12 Z M-193.05 291.12 C-193.38 292.44 -193.71 293.76 -194.05 295.12 C-193.39 294.79 -192.73 294.46 -192.05 294.12 C-192.38 293.13 -192.71 292.14 -193.05 291.12 Z M-197.05 296.12 C-198.53 298.1 -198.53 298.1 -200.05 300.12 C-198.73 299.79 -197.41 299.46 -196.05 299.12 C-196.38 298.13 -196.71 297.14 -197.05 296.12 Z M-208.05 311.12 C-207.05 314.12 -207.05 314.12 -207.05 314.12 Z " fill="#000002" transform="translate(420.0485534667969,193.87974548339844)"/>
<path d="M0 0 C299.64 0 599.28 0 908 0 C908 0.33 908 0.66 908 1 C608.36 1 308.72 1 0 1 C0 0.67 0 0.34 0 0 Z " fill="#FDFDFD" transform="translate(47,1085)"/>
<path d="M0 0 C220.44 0 440.88 0 668 0 C668 0.33 668 0.66 668 1 C447.56 1 227.12 1 0 1 C0 0.67 0 0.34 0 0 Z " fill="#FDFDFD" transform="translate(340,430)"/>
<path d="M0 0 C0.33 0.99 0.66 1.98 1 3 C-6.33 10.33 -13.67 17.67 -21 25 C-21.33 24.34 -21.66 23.68 -22 23 C-21.2 22.24 -20.39 21.47 -19.56 20.69 C-16.83 18.21 -16.83 18.21 -16 15 C-14.67 14.33 -13.33 13.67 -12 13 C-11.67 12.01 -11.34 11.02 -11 10 C-9.67 9.33 -8.33 8.67 -7 8 C-6.67 7.01 -6.34 6.02 -6 5 C-4.68 4.32 -3.34 3.65 -2 3 C-1.34 2.01 -0.68 1.02 0 0 Z " fill="#373334" transform="translate(1026,1035)"/>
<path d="M0 0 C0.33 0.66 0.66 1.32 1 2 C0.06 4.12 0.06 4.12 -1 6 C-1.04 4.33 -1.04 2.67 -1 1 C-0.67 0.67 -0.34 0.34 0 0 Z " fill="#FDFDFD" transform="translate(1191,715)"/>
<path d="M0 0 C0.33 0.66 0.66 1.32 1 2 C0.06 4.12 0.06 4.12 -1 6 C-1.04 4.33 -1.04 2.67 -1 1 C-0.67 0.67 -0.34 0.34 0 0 Z " fill="#FDFDFD" transform="translate(116,705)"/>
<path d="M0 0 C0.33 0.66 0.66 1.32 1 2 C0.01 3.49 0.01 3.49 -1 5 C-0.67 3.35 -0.34 1.7 0 0 Z " fill="#FDFDFD" transform="translate(1196,705)"/>
<path d="M0 0 C0.33 0.66 0.66 1.32 1 2 C0.01 3.49 0.01 3.49 -1 5 C-0.67 3.35 -0.34 1.7 0 0 Z " fill="#FDFDFD" transform="translate(1201,695)"/>
<path d="M0 0 C0.33 0.66 0.66 1.32 1 2 C0.01 3.49 0.01 3.49 -1 5 C-0.67 3.35 -0.34 1.7 0 0 Z " fill="#FDFDFD" transform="translate(121,695)"/>
<path d="M0 0 C0.33 0.66 0.66 1.32 1 2 C0.01 3.49 0.01 3.49 -1 5 C-0.67 3.35 -0.34 1.7 0 0 Z " fill="#FDFDFD" transform="translate(1206,685)"/>
<path d="M0 0 C0.33 0.66 0.66 1.32 1 2 C0.01 3.49 0.01 3.49 -1 5 C-0.67 3.35 -0.34 1.7 0 0 Z " fill="#FDFDFD" transform="translate(126,685)"/>
<path d="M0 0 C0.33 0.66 0.66 1.32 1 2 C0.01 3.49 0.01 3.49 -1 5 C-0.67 3.35 -0.34 1.7 0 0 Z " fill="#FDFDFD" transform="translate(1211,675)"/>
<path d="M0 0 C0.33 0.66 0.66 1.32 1 2 C0.01 3.49 0.01 3.49 -1 5 C-0.67 3.35 -0.34 1.7 0 0 Z " fill="#FDFDFD" transform="translate(131,675)"/>
<path d="M0 0 C0.33 0.66 0.66 1.32 1 2 C0.01 3.49 0.01 3.49 -1 5 C-0.67 3.35 -0.34 1.7 0 0 Z " fill="#FDFDFD" transform="translate(1216,665)"/>
<path d="M0 0 C0.33 0.66 0.66 1.32 1 2 C0.01 3.49 0.01 3.49 -1 5 C-0.67 3.35 -0.34 1.7 0 0 Z " fill="#FDFDFD" transform="translate(136,665)"/>
<path d="M0 0 C0.33 0.66 0.66 1.32 1 2 C0.01 3.49 0.01 3.49 -1 5 C-0.67 3.35 -0.34 1.7 0 0 Z " fill="#FDFDFD" transform="translate(141,655)"/>
<path d="M0 0 C0.33 0.66 0.66 1.32 1 2 C0.01 3.49 0.01 3.49 -1 5 C-0.67 3.35 -0.34 1.7 0 0 Z " fill="#FDFDFD" transform="translate(146,645)"/>
<path d="M0 0 C1.98 0 3.96 0 6 0 C6 0.33 6 0.66 6 1 C4.02 1 2.04 1 0 1 C0 0.67 0 0.34 0 0 Z " fill="#FDFDFD" transform="translate(331,430)"/>
<path d="M0 0 C1.65 0 3.3 0 5 0 C5 0.33 5 0.66 5 1 C3.35 1 1.7 1 0 1 C0 0.67 0 0.34 0 0 Z " fill="#FDFDFD" transform="translate(972,1080)"/>
<path d="M0 0 C0.66 0.33 1.32 0.66 2 1 C1.01 1.66 0.02 2.32 -1 3 C-0.67 2.01 -0.34 1.02 0 0 Z " fill="#FDFDFD" transform="translate(236,480)"/>
<path d="M0 0 C1.65 0 3.3 0 5 0 C5 0.33 5 0.66 5 1 C3.35 1 1.7 1 0 1 C0 0.67 0 0.34 0 0 Z " fill="#FDFDFD" transform="translate(297,440)"/>
<path d="M0 0 C1 4 1 4 1 4 Z " fill="#FDFDFD" transform="translate(1040,1021)"/>
<path d="M0 0 C1 4 1 4 1 4 Z " fill="#FDFDFD" transform="translate(1045,1011)"/>
<path d="M0 0 C1 4 1 4 1 4 Z " fill="#FDFDFD" transform="translate(1050,1001)"/>
<path d="M0 0 C1 4 1 4 1 4 Z " fill="#FDFDFD" transform="translate(1220,656)"/>
<path d="M0 0 C1 4 1 4 1 4 Z " fill="#FDFDFD" transform="translate(1225,646)"/>
<path d="M0 0 C1 4 1 4 1 4 Z " fill="#FDFDFD" transform="translate(1230,636)"/>
<path d="M0 0 C1 4 1 4 1 4 Z " fill="#FDFDFD" transform="translate(150,636)"/>
<path d="M0 0 C1 4 1 4 1 4 Z " fill="#FDFDFD" transform="translate(1235,626)"/>
<path d="M0 0 C1 4 1 4 1 4 Z " fill="#FDFDFD" transform="translate(155,626)"/>
<path d="M0 0 C1 4 1 4 1 4 Z " fill="#FDFDFD" transform="translate(160,616)"/>
<path d="M0 0 C1 4 1 4 1 4 Z " fill="#FDFDFD" transform="translate(165,606)"/>
<path d="M0 0 C4 1 4 1 4 1 Z " fill="#FDFDFD" transform="translate(312,435)"/>
<path d="M0 0 C4 1 4 1 4 1 Z " fill="#FDFDFD" transform="translate(422,260)"/>
<path d="" fill="#000002" transform="translate(0,0)"/>
<path d="" fill="#000002" transform="translate(0,0)"/>
<path d="" fill="#FDFDFD" transform="translate(0,0)"/>
<path d="" fill="#FDFDFD" transform="translate(0,0)"/>
<path d="" fill="#FDFDFD" transform="translate(0,0)"/>
<path d="" fill="#FDFDFD" transform="translate(0,0)"/>
<path d="" fill="#FDFDFD" transform="translate(0,0)"/>
<path d="" fill="#FDFDFD" transform="translate(0,0)"/>
<path d="" fill="#FDFDFD" transform="translate(0,0)"/>
<path d="" fill="#FDFDFD" transform="translate(0,0)"/>
<path d="" fill="#FDFDFD" transform="translate(0,0)"/>
<path d="" fill="#000002" transform="translate(0,0)"/>
<path d="" fill="#FDFDFD" transform="translate(0,0)"/>
<path d="" fill="#000002" transform="translate(0,0)"/>
<path d="" fill="#FDFDFD" transform="translate(0,0)"/>
<path d="" fill="#FDFDFD" transform="translate(0,0)"/>
<path d="" fill="#FDFDFD" transform="translate(0,0)"/>
<path d="" fill="#FDFDFD" transform="translate(0,0)"/>
<path d="" fill="#FDFDFD" transform="translate(0,0)"/>
<path d="" fill="#FDFDFD" transform="translate(0,0)"/>
<path d="" fill="#FDFDFD" transform="translate(0,0)"/>
<path d="" fill="#FDFDFD" transform="translate(0,0)"/>
<path d="" fill="#FDFDFD" transform="translate(0,0)"/>
<path d="" fill="#FDFDFD" transform="translate(0,0)"/>
<path d="" fill="#FDFDFD" transform="translate(0,0)"/>
<path d="" fill="#FDFDFD" transform="translate(0,0)"/>
<path d="" fill="#FDFDFD" transform="translate(0,0)"/>
<path d="" fill="#000002" transform="translate(0,0)"/>
<path d="" fill="#FDFDFD" transform="translate(0,0)"/>
<path d="" fill="#000002" transform="translate(0,0)"/>
<path d="" fill="#FDFDFD" transform="translate(0,0)"/>
<path d="" fill="#FDFDFD" transform="translate(0,0)"/>
<path d="M0 0 C3 1 3 1 3 1 Z " fill="#000002" transform="translate(302,499)"/>
<path d="M0 0 C3 1 3 1 3 1 Z " fill="#000002" transform="translate(323,489)"/>
<path d="M0 0 C3 1 3 1 3 1 Z " fill="#FDFDFD" transform="translate(286,445)"/>
<path d="" fill="#FDFDFD" transform="translate(0,0)"/>
<path d="M0 0 C2 1 2 1 2 1 Z " fill="#FDFDFD" transform="translate(996,1070)"/>
<path d="" fill="#FDFDFD" transform="translate(0,0)"/>
<path d="" fill="#FDFDFD" transform="translate(0,0)"/>
<path d="" fill="#FDFDFD" transform="translate(0,0)"/>
<path d="" fill="#FDFDFD" transform="translate(0,0)"/>
<path d="" fill="#FDFDFD" transform="translate(0,0)"/>
<path d="" fill="#FDFDFD" transform="translate(0,0)"/>
<path d="" fill="#FDFDFD" transform="translate(0,0)"/>
<path d="" fill="#FDFDFD" transform="translate(0,0)"/>
<path d="" fill="#FDFDFD" transform="translate(0,0)"/>
<path d="" fill="#FDFDFD" transform="translate(0,0)"/>
<path d="" fill="#FDFDFD" transform="translate(0,0)"/>
<path d="" fill="#FDFDFD" transform="translate(0,0)"/>
<path d="" fill="#FDFDFD" transform="translate(0,0)"/>
<path d="" fill="#FDFDFD" transform="translate(0,0)"/>
<path d="" fill="#FDFDFD" transform="translate(0,0)"/>
<path d="" fill="#FDFDFD" transform="translate(0,0)"/>
<path d="M0 0 C2 1 2 1 2 1 Z " fill="#000002" transform="translate(1278,505)"/>
<path d="M0 0 C2 1 2 1 2 1 Z " fill="#FDFDFD" transform="translate(277,450)"/>
<path d="" fill="#FDFDFD" transform="translate(0,0)"/>
<path d="" fill="#FDFDFD" transform="translate(0,0)"/>
<path d="" fill="#000002" transform="translate(0,0)"/>
<path d="" fill="#FDFDFD" transform="translate(0,0)"/>
<path d="" fill="#000002" transform="translate(0,0)"/>
<path d="" fill="#FDFDFD" transform="translate(0,0)"/>
<path d="" fill="#FDFDFD" transform="translate(0,0)"/>
<path d="" fill="#FDFDFD" transform="translate(0,0)"/>
<path d="" fill="#000002" transform="translate(0,0)"/>
<path d="" fill="#FDFDFD" transform="translate(0,0)"/>
<path d="" fill="#000002" transform="translate(0,0)"/>
<path d="" fill="#FDFDFD" transform="translate(0,0)"/>
<path d="" fill="#000002" transform="translate(0,0)"/>
<path d="" fill="#FDFDFD" transform="translate(0,0)"/>
<path d="" fill="#000002" transform="translate(0,0)"/>
<path d="" fill="#FDFDFD" transform="translate(0,0)"/>
<path d="" fill="#FDFDFD" transform="translate(0,0)"/>
<path d="" fill="#FDFDFD" transform="translate(0,0)"/>
<path d="" fill="#FDFDFD" transform="translate(0,0)"/>
<path d="" fill="#FDFDFD" transform="translate(0,0)"/>
<path d="" fill="#FDFDFD" transform="translate(0,0)"/>
<path d="" fill="#FDFDFD" transform="translate(0,0)"/>
<path d="" fill="#000002" transform="translate(0,0)"/>
<path d="" fill="#FDFDFD" transform="translate(0,0)"/>
<path d="" fill="#FDFDFD" transform="translate(0,0)"/>
<path d="" fill="#FDFDFD" transform="translate(0,0)"/>
<path d="" fill="#FDFDFD" transform="translate(0,0)"/>
<path d="" fill="#FDFDFD" transform="translate(0,0)"/>
<path d="" fill="#FDFDFD" transform="translate(0,0)"/>
<path d="" fill="#000002" transform="translate(0,0)"/>
<path d="" fill="#FDFDFD" transform="translate(0,0)"/>
<path d="" fill="#FDFDFD" transform="translate(0,0)"/>
<path d="" fill="#000002" transform="translate(0,0)"/>
<path d="" fill="#FDFDFD" transform="translate(0,0)"/>
<path d="" fill="#FDFDFD" transform="translate(0,0)"/>
<path d="" fill="#FDFDFD" transform="translate(0,0)"/>
<path d="" fill="#000002" transform="translate(0,0)"/>
<path d="" fill="#FDFDFD" transform="translate(0,0)"/>
<path d="" fill="#FDFDFD" transform="translate(0,0)"/>
<path d="" fill="#000002" transform="translate(0,0)"/>
<path d="" fill="#FDFDFD" transform="translate(0,0)"/>
<path d="" fill="#FDFDFD" transform="translate(0,0)"/>
<path d="" fill="#000002" transform="translate(0,0)"/>
<path d="" fill="#FDFDFD" transform="translate(0,0)"/>
<path d="" fill="#FDFDFD" transform="translate(0,0)"/>
<path d="" fill="#FDFDFD" transform="translate(0,0)"/>
<path d="" fill="#FDFDFD" transform="translate(0,0)"/>
<path d="" fill="#000002" transform="translate(0,0)"/>
<path d="" fill="#FDFDFD" transform="translate(0,0)"/>
<path d="" fill="#FDFDFD" transform="translate(0,0)"/>
<path d="" fill="#000002" transform="translate(0,0)"/>
<path d="" fill="#FDFDFD" transform="translate(0,0)"/>
<path d="" fill="#FDFDFD" transform="translate(0,0)"/>
<path d="" fill="#000002" transform="translate(0,0)"/>
<path d="" fill="#FDFDFD" transform="translate(0,0)"/>
<path d="" fill="#FDFDFD" transform="translate(0,0)"/>
<path d="" fill="#000002" transform="translate(0,0)"/>
<path d="" fill="#FDFDFD" transform="translate(0,0)"/>
<path d="" fill="#000002" transform="translate(0,0)"/>
<path d="" fill="#FDFDFD" transform="translate(0,0)"/>
<path d="" fill="#000002" transform="translate(0,0)"/>
<path d="" fill="#000002" transform="translate(0,0)"/>
<path d="" fill="#000002" transform="translate(0,0)"/>
<path d="" fill="#FDFDFD" transform="translate(0,0)"/>
<path d="" fill="#FDFDFD" transform="translate(0,0)"/>
<path d="" fill="#FDFDFD" transform="translate(0,0)"/>
<path d="" fill="#000002" transform="translate(0,0)"/>
<path d="" fill="#000002" transform="translate(0,0)"/>
<path d="" fill="#000002" transform="translate(0,0)"/>
<path d="" fill="#000002" transform="translate(0,0)"/>
<path d="" fill="#000002" transform="translate(0,0)"/>
<path d="" fill="#FDFDFD" transform="translate(0,0)"/>
<path d="" fill="#FDFDFD" transform="translate(0,0)"/>
<path d="" fill="#000002" transform="translate(0,0)"/>
<path d="" fill="#A2A19F" transform="translate(0,0)"/>
<path d="" fill="#A2A19F" transform="translate(0,0)"/>
<path d="" fill="#A2A19F" transform="translate(0,0)"/>
<path d="" fill="#000002" transform="translate(0,0)"/>
<path d="" fill="#000002" transform="translate(0,0)"/>
<path d="" fill="#000002" transform="translate(0,0)"/>
</svg>
